<?xml version="1.0" standalone="no"?>
<!DOCTYPE svg PUBLIC "-//W3C//DTD SVG 20010904//EN"
 "http://www.w3.org/TR/2001/REC-SVG-20010904/DTD/svg10.dtd">
<svg version="1.0" xmlns="http://www.w3.org/2000/svg"
 width="523.000000pt" height="136.000000pt" viewBox="0 0 523.000000 136.000000"
 preserveAspectRatio="xMidYMid meet">

<g transform="translate(0.000000,136.000000) scale(0.100000,-0.100000)"
fill="#D70717" stroke="none">
<path d="M2603 1350 c-122 -26 -193 -118 -193 -251 0 -121 48 -203 194 -328
113 -98 147 -144 154 -211 6 -68 -11 -107 -53 -119 -80 -22 -125 18 -125 110
l0 59 -85 0 -85 0 0 -58 c0 -162 83 -256 239 -269 182 -15 291 85 291 268 0
123 -43 198 -189 323 -112 96 -144 143 -149 216 -3 45 0 60 18 83 18 23 29 27
70 27 65 0 90 -25 90 -91 0 -55 7 -59 113 -59 l67 0 0 53 c0 28 -5 69 -11 91
-15 54 -80 121 -136 140 -58 20 -156 27 -210 16z"/>
<path d="M1918 1331 c-64 -4 -120 -9 -123 -13 -7 -7 56 -1031 64 -1039 3 -3
111 -1 239 4 l232 10 0 74 0 74 -150 -2 c-83 -1 -152 0 -154 2 -2 2 -6 70 -10
152 l-6 147 57 0 c32 0 89 3 126 7 l68 6 -3 71 -3 71 -126 -3 -126 -2 -7 141
c-3 78 -5 144 -2 146 2 2 74 7 160 10 86 3 159 10 162 14 2 5 2 38 -2 74 l-7
65 -136 -2 c-75 -1 -189 -4 -253 -7z"/>
<path d="M3080 1313 c0 -10 -11 -245 -25 -523 -13 -277 -23 -505 -22 -506 1
-1 41 -4 88 -8 l86 -6 6 83 c4 45 9 142 13 216 l7 134 117 -7 117 -7 7 47 c13
99 12 100 -46 108 -29 3 -75 6 -103 6 -80 0 -78 -4 -70 170 l8 152 61 -5 c33
-4 104 -9 157 -13 l96 -7 6 74 c3 40 5 74 4 76 -4 4 -408 33 -459 33 -39 0
-48 -3 -48 -17z"/>
<path d="M1608 1311 c-43 -4 -79 -9 -82 -11 -5 -6 -56 -717 -56 -782 0 -27 -3
-48 -8 -48 -4 0 -56 180 -117 401 l-109 401 -73 -7 c-40 -4 -84 -10 -97 -13
l-23 -7 76 -250 c43 -137 111 -366 151 -507 l74 -258 31 1 c16 0 75 6 130 12
l100 12 17 210 c17 203 63 695 75 803 3 28 2 51 -3 50 -5 0 -44 -4 -86 -7z"/>
<path d="M3676 1248 c-9 -66 -96 -958 -96 -984 0 -20 7 -23 63 -29 34 -3 132
-15 217 -26 85 -10 160 -19 166 -19 9 0 39 139 31 146 -1 1 -65 10 -142 20
-77 10 -141 18 -143 19 -2 2 20 199 48 438 27 240 50 440 50 445 0 5 -26 13
-57 16 -32 4 -75 9 -95 12 l-37 6 -5 -44z"/>
<path d="M645 1194 c-43 -8 -80 -16 -81 -17 -3 -3 173 -1027 177 -1032 2 -2
24 0 49 5 25 5 126 20 225 35 99 14 181 27 182 28 3 4 -17 140 -21 145 -2 2
-66 -6 -142 -17 -76 -11 -140 -19 -141 -17 -2 2 -34 200 -71 442 -53 346 -70
439 -82 440 -8 1 -51 -4 -95 -12z"/>
<path d="M4191 712 c-41 -273 -75 -506 -75 -517 -1 -17 10 -21 82 -33 46 -8
85 -12 86 -10 2 3 164 977 169 1018 1 10 -16 18 -63 27 -36 7 -78 12 -95 13
l-30 0 -74 -498z"/>
<path d="M4570 1156 c0 -6 20 -118 45 -249 25 -131 45 -248 45 -261 0 -13 -58
-120 -129 -238 -70 -117 -135 -227 -144 -244 l-16 -31 63 -11 c35 -7 72 -12
82 -12 14 0 48 49 129 185 69 116 111 179 114 168 2 -10 15 -108 30 -218 l26
-199 75 -18 c101 -23 108 -23 104 5 -2 12 -18 127 -34 256 -17 128 -33 246
-36 261 -5 22 18 63 140 244 81 120 148 222 149 228 1 6 -34 19 -77 29 -65 16
-82 17 -92 7 -7 -7 -56 -80 -109 -163 -53 -82 -100 -151 -104 -153 -4 -1 -20
83 -36 188 -15 105 -33 194 -39 197 -23 15 -186 40 -186 29z"/>
<path d="M170 1105 c-58 -12 -118 -25 -134 -29 l-29 -7 7 -207 c7 -246 34
-760 41 -818 l6 -42 52 13 c29 7 63 15 77 19 25 5 25 7 25 103 l0 97 102 22
102 22 32 -89 c22 -63 37 -89 48 -89 23 1 150 26 155 31 5 5 -358 968 -371
985 -6 8 -38 5 -113 -11z m104 -452 c47 -122 86 -226 86 -231 0 -10 -150 -46
-157 -38 -6 6 -22 308 -23 420 0 44 2 77 4 75 3 -2 43 -104 90 -226z"/>
</g>
</svg>
